<?xml version="1.0" encoding="utf-8"?>
<!-- Generator: Adobe Illustrator 25.0.1, SVG Export Plug-In . SVG Version: 6.00 Build 0)  -->
<svg version="1.1" id="Layer_1" xmlns="http://www.w3.org/2000/svg" xmlns:xlink="http://www.w3.org/1999/xlink" x="0px" y="0px"
	 viewBox="0 0 1440 900" style="enable-background:new 0 0 1440 900;" xml:space="preserve">
<style type="text/css">
	.st0{fill:#00BEE0;}
	.st1{fill:#00BEE0;fill-opacity:0;stroke:#FFFFFF;stroke-opacity:0;}
</style>
<g>
	<g>
		<g>
			<g>
				<path id="c1yTvaEcl4" class="st0" d="M1398.9,869.9c-13.6-23.8-48.4-22.5-60.1,2.4c-4.4,9.4,5.6-11.8,0,0
					c-11.4,24.2-42.3,31.7-63.5,15.3c-19.2-14.9-24.8-19.1-41.3-31.9c-26.9-20.8-66.2-8.9-77.1,23.3c-3.8,11.1,4.4-13.2,0,0
					c-7.9,23.5-39,28.4-53.8,8.5c-11.1-14.9-9.3-12.5-20.4-27.5c-16.5-22.2-50.4-20.4-64.5,3.5c-6.6,11.2-6.5,11.1-15.5,26.4
					c-7.1,12.1-25,10.8-30.3-2.2c-6.1-14.9-4.1-9.9-8.3-20.2c-10.2-24.9-43.2-30.2-60.7-9.7c-7.3,8.6,7.7-8.9,0,0
					c-19.1,22.3-53.8,21.9-72.4-0.8c-11.6-14.2-0.7-0.8-9.8-12c-23.2-28.4-67.7-24.3-85.5,7.7c-5.3,9.6-2.9,5.2-12.8,23.2
					c-6.1,11-21.8,11.4-28.5,0.7c-7.9-12.7-7.6-12.3-13.2-21.4c-12.4-20-41.1-21-54.8-1.8c-9.4,13.2-12.7,17.8-23.1,32.3
					c-9.4,13.1-29.9,9.1-33.6-6.6c-3.1-13.2-0.4-1.5-2.8-12c-4.6-19.5-30.6-23.4-40.8-6.2c-6.9,11.7-3.1,5.3-10.9,18.5
					c-10.5,17.9-36.5,17.9-47,0c-7.8-13.3-0.4-0.7-6.4-10.8c-14.3-24.2-49.6-23.5-62.7,1.4c-5.2,9.9,6-11.4,0,0
					c-10.4,19.6-38.8,18.1-47.2-2.4c-4.4-10.9,2.3,5.7-2.4-5.8c-6.2-15.2-28.2-13.6-32.1,2.4c-2.7,11,0.5-2-2.5,10.3
					c-3.6,14.9-23.9,17-30.5,3.1c-6.1-12.9-0.4-0.8-5.4-11.4c-9.6-20.3-38.7-19.6-47.3,1.2c-4.3,10.4,1.5-3.6-3.7,9.1
					c-7,17.1-30.8,18.2-39.4,1.9c-6.9-13-5.9-11.1-12.8-24.1c-8-15.2-30.4-13.1-35.5,3.3c-4.8,15.4-4.1,13.2-8.5,27.6
					c-5.6,18.1-30.3,20.2-38.9,3.4c-7.8-15.1-3.7-7.1-10.5-20.4c-10.7-20.7-41-18.6-48.6,3.4c-8.4,24.1-126.3,51.1-159.8,147.6
					c99.9,0,700.2,3,1801.1,9.1C1492.6,925.4,1400.5,872.6,1398.9,869.9z"/>
			</g>
			<g>
				<g>
					<path id="c1yTvaEcl4_1_" class="st1" d="M1398.9,869.9c-13.6-23.8-48.4-22.5-60.1,2.4c-4.4,9.4,5.6-11.8,0,0
						c-11.4,24.2-42.3,31.7-63.5,15.3c-19.2-14.9-24.8-19.1-41.3-31.9c-26.9-20.8-66.2-8.9-77.1,23.3c-3.8,11.1,4.4-13.2,0,0
						c-7.9,23.5-39,28.4-53.8,8.5c-11.1-14.9-9.3-12.5-20.4-27.5c-16.5-22.2-50.4-20.4-64.5,3.5c-6.6,11.2-6.5,11.1-15.5,26.4
						c-7.1,12.1-25,10.8-30.3-2.2c-6.1-14.9-4.1-9.9-8.3-20.2c-10.2-24.9-43.2-30.2-60.7-9.7c-7.3,8.6,7.7-8.9,0,0
						c-19.1,22.3-53.8,21.9-72.4-0.8c-11.6-14.2-0.7-0.8-9.8-12c-23.2-28.4-67.7-24.3-85.5,7.7c-5.3,9.6-2.9,5.2-12.8,23.2
						c-6.1,11-21.8,11.4-28.5,0.7c-7.9-12.7-7.6-12.3-13.2-21.4c-12.4-20-41.1-21-54.8-1.8c-9.4,13.2-12.7,17.8-23.1,32.3
						c-9.4,13.1-29.9,9.1-33.6-6.6c-3.1-13.2-0.4-1.5-2.8-12c-4.6-19.5-30.6-23.4-40.8-6.2c-6.9,11.7-3.1,5.3-10.9,18.5
						c-10.5,17.9-36.5,17.9-47,0c-7.8-13.3-0.4-0.7-6.4-10.8c-14.3-24.2-49.6-23.5-62.7,1.4c-5.2,9.9,6-11.4,0,0
						c-10.4,19.6-38.8,18.1-47.2-2.4c-4.4-10.9,2.3,5.7-2.4-5.8c-6.2-15.2-28.2-13.6-32.1,2.4c-2.7,11,0.5-2-2.5,10.3
						c-3.6,14.9-23.9,17-30.5,3.1c-6.1-12.9-0.4-0.8-5.4-11.4c-9.6-20.3-38.7-19.6-47.3,1.2c-4.3,10.4,1.5-3.6-3.7,9.1
						c-7,17.1-30.8,18.2-39.4,1.9c-6.9-13-5.9-11.1-12.8-24.1c-8-15.2-30.4-13.1-35.5,3.3c-4.8,15.4-4.1,13.2-8.5,27.6
						c-5.6,18.1-30.3,20.2-38.9,3.4c-7.8-15.1-3.7-7.1-10.5-20.4c-10.7-20.7-41-18.6-48.6,3.4c-8.4,24.1-126.3,51.1-159.8,147.6
						c99.9,0,700.2,3,1801.1,9.1C1492.6,925.4,1400.5,872.6,1398.9,869.9z"/>
				</g>
			</g>
		</g>
	</g>
</g>
</svg>
